<svg viewBox="0 0 500 500" xmlns="http://www.w3.org/2000/svg"><defs><clipPath id="a"><path d="M0 0h500v500H0Z"/></clipPath></defs><g clip-path="url(#a)"><g fill="#FFF"><path d="M197.917-.07H31.25C13.99-.07 0 13.92 0 31.18v166.66c0 17.25 13.99 31.25 31.25 31.25h166.667c17.25 0 31.25-14 31.25-31.25V31.17c0-17.26-14-31.25-31.25-31.25Z"/><path d="M468.75-.07H302.08c-17.26 0-31.25 13.99-31.25 31.25v166.66c0 17.25 13.99 31.25 31.25 31.25h166.66c17.25 0 31.25-14 31.25-31.25V31.17c0-17.26-14-31.25-31.25-31.25Z"/><path d="M197.917 270.77H31.25C13.99 270.77 0 284.76 0 302.02v166.66c0 17.25 13.99 31.25 31.25 31.25h166.667c17.25 0 31.25-14 31.25-31.25V302.01c0-17.26-14-31.25-31.25-31.25Z"/><path d="M468.75 270.77H302.08c-17.26 0-31.25 13.99-31.25 31.25v166.66c0 17.25 13.99 31.25 31.25 31.25h166.66c17.25 0 31.25-14 31.25-31.25V302.01c0-17.26-14-31.25-31.25-31.25Z"/></g></g></svg>