<svg viewBox="0 0 500 500" xmlns="http://www.w3.org/2000/svg"><g fill="#FFF"><path d="M241.81 3.39l-87.856 87.85c-4.53 4.52-4.53 11.85 0 16.37l87.856 87.85c4.52 4.52 11.85 4.52 16.37 0l87.856-87.86c4.52-4.53 4.52-11.86 0-16.38L258.18 3.36c-4.53-4.53-11.86-4.53-16.38-.001Z"/><path d="M241.81 304.51l-87.856 87.85c-4.53 4.52-4.53 11.85 0 16.37l87.856 87.85c4.52 4.52 11.85 4.52 16.37 0l87.856-87.86c4.52-4.53 4.52-11.86 0-16.38l-87.856-87.86c-4.53-4.53-11.86-4.53-16.38 0Z"/><path d="M3.39 241.81l87.85-87.856c4.52-4.53 11.85-4.53 16.37 0l87.85 87.856c4.52 4.52 4.52 11.85 0 16.37l-87.86 87.856c-4.53 4.52-11.86 4.52-16.38 0L3.36 258.18c-4.53-4.53-4.53-11.86-.001-16.38Z"/><path d="M392.372 153.954l-87.86 87.856c-4.53 4.52-4.53 11.85 0 16.37l87.85 87.856c4.52 4.52 11.85 4.52 16.37 0l87.85-87.856c4.52-4.53 4.52-11.86 0-16.38l-87.86-87.856c-4.53-4.53-11.86-4.53-16.38 0Z"/></g></svg>