<svg viewBox="0 0 500 500" xmlns="http://www.w3.org/2000/svg"><defs><clipPath id="a"><path d="M0 0h500v500H0Z"/></clipPath></defs><g clip-path="url(#a)"><path fill="#DB2880" d="M121.99 0h255.97c67.37 0 121.99 54.61 121.99 121.99v255.97c0 67.37-54.62 121.99-121.99 121.99H121.98C54.6 499.95-.01 445.33-.01 377.96V121.98C-.01 54.6 54.6-.01 121.98-.01Z"/><g fill="#FFF"><path d="M208.21 90h-99.55c-10.31 0-18.67 8.35-18.67 18.66v99.54c0 10.3 8.35 18.66 18.66 18.66h99.54c10.3 0 18.66-8.36 18.66-18.67v-99.55c0-10.31-8.36-18.67-18.67-18.67Z"/><path d="M391.335 90h-99.55c-10.31 0-18.67 8.35-18.67 18.66v99.54c0 10.3 8.35 18.66 18.66 18.66h99.54c10.3 0 18.66-8.36 18.66-18.67v-99.55c0-10.31-8.36-18.67-18.67-18.67Z"/><path d="M208.21 273.12h-99.55c-10.31 0-18.67 8.35-18.67 18.66v99.54c0 10.3 8.35 18.66 18.66 18.66h99.54c10.3 0 18.66-8.36 18.66-18.67v-99.55c0-10.31-8.36-18.67-18.67-18.67Z"/><path d="M391.335 273.12h-99.55c-10.31 0-18.67 8.35-18.67 18.66v99.54c0 10.3 8.35 18.66 18.66 18.66h99.54c10.3 0 18.66-8.36 18.66-18.67v-99.55c0-10.31-8.36-18.67-18.67-18.67Z"/></g></g></svg>