<svg viewBox="0 0 500 500" xmlns="http://www.w3.org/2000/svg"><defs><clipPath id="a"><path d="M0 0h500v500H0Z"/></clipPath></defs><g clip-path="url(#a)"><path fill="#01D8C1" d="M121.99 0h255.97c67.37 0 121.99 54.61 121.99 121.99v255.97c0 67.37-54.62 121.99-121.99 121.99H121.98C54.6 499.95-.01 445.33-.01 377.96V121.98C-.01 54.6 54.6-.01 121.98-.01Z"/><g><path d="M244.267 77.37l-61.5 61.49c-3.17 3.16-3.17 8.29 0 11.46l61.49 61.49c3.16 3.16 8.3 3.16 11.46 0l61.5-61.5c3.16-3.17 3.16-8.3 0-11.47l-61.5-61.5c-3.17-3.17-8.3-3.17-11.47 0Z"/><path d="M244.267 288.161l-61.5 61.49c-3.17 3.16-3.17 8.29 0 11.46l61.49 61.49c3.16 3.16 8.3 3.16 11.46 0l61.5-61.5c3.16-3.17 3.16-8.3 0-11.47l-61.5-61.5c-3.17-3.17-8.3-3.17-11.47 0Z"/><path d="M77.37 244.267l61.5-61.5c3.16-3.17 8.29-3.17 11.46 0l61.49 61.49c3.16 3.16 3.16 8.29 0 11.46l-61.5 61.5c-3.17 3.16-8.3 3.16-11.47 0l-61.51-61.5c-3.17-3.17-3.17-8.3 0-11.47Z"/><path d="M349.66 182.768l-61.5 61.49c-3.17 3.16-3.17 8.29 0 11.46l61.49 61.5c3.16 3.16 8.3 3.16 11.46 0l61.49-61.5c3.16-3.17 3.16-8.3 0-11.47l-61.5-61.5c-3.17-3.17-8.3-3.17-11.47 0Z"/></g></g></svg>